<svg viewBox="0 0 130 130" xmlns="http://www.w3.org/2000/svg">
  <g fill="none" fill-rule="evenodd">
    <circle fill="#000" cx="65" cy="65" r="65"/>
    <g fill="#FFF">
      <path d="M78.867 65l.866-1.878L80.6 65h-1.733zm2.022-3.322h-2.167l-2.744 5.055H78l.289-.866h2.744l.434.866h2.022l-2.6-5.055z" fill-rule="nonzero"/>
      <path d="M39.433 64.278l1.445 1.155 1.733 1.3h1.733v-5.055h-2.166l.144 2.6-1.444-1.156-1.59-1.444h-1.877v5.055h2.167zM54.6 65.722h-2.456v-1.01h2.167V63.7h-2.167v-.867h2.312v-1.155h-4.478v5.055H54.6zM31.778 61.678h-2.022v5.055h2.022z"/>
      <path d="M91.722 63.7c-.144.144-.578.144-.722.144h-.722v-1.3H91c.289 0 .433 0 .578.145.144.144.289.289.289.578s-.145.433-.145.433zm1.59.867c-.29-.29-.579-.145-.434-.29h.144c.29-.144.434-.288.578-.433.144-.144.289-.433.289-.722s-.145-.578-.289-.866a.794.794 0 0 0-.722-.434c-.29-.144-.722-.144-1.445-.144h-3.322v5.055h2.167v-2.022h.578c.144 0 .288 0 .433.145.144 0 .289.288.433.433l.722 1.444h2.023c.144 0-1.011-1.877-1.156-2.166z" fill-rule="nonzero"/>
      <path d="M22.533 70.2c.145 0 .145 0 0 0h40.3v-4.478l3.034 3.034 3.033-3.034-.144 4.478h44.633l-9.822-6.356 2.6-2.166H104l-2.889 2.31v-2.31H99.09v5.055h2.022v-2.455l5.345 3.322h-35.1v-5.922h-2.312l-3.322 3.466-3.322-3.466h-2.311V67.6h-37.7c-1.156 0-1.878-.867-1.878-2.022 0-1.156.867-2.022 2.022-2.022.578 0 1.156.288 1.59.722l1.01-2.311c-.722-.578-1.589-.867-2.6-.867-2.455 0-4.477 2.022-4.477 4.478 0 2.6 2.022 4.622 4.477 4.622z"/>
    </g>
  </g>
</svg>
