<svg viewBox="0 0 60 46" xmlns="http://www.w3.org/2000/svg" xmlns:xlink="http://www.w3.org/1999/xlink">
  <defs>
    <path d="M46.524 38.508c-.086.047-.17.097-.25.151.389-.839.6-1.767.6-2.733v-.113a6.67 6.67 0 0 0-1.96-4.747 6.635 6.635 0 0 0-4.728-1.96h-.006c-2.745.002-6.043.004-8.785.004a6.693 6.693 0 0 0-6.682 6.685v1.887l-2.917-1.496v-13.65l13.378-6.71a1.388 1.388 0 0 1 1.239-.001l26.896 13.49-16.785 9.193zm-19.589.314v-3.027c0-2.46 2.001-4.462 4.46-4.462 2.743 0 6.042-.002 8.787-.004h.004c1.192 0 2.313.464 3.155 1.308a4.463 4.463 0 0 1 1.31 3.176v.113a4.227 4.227 0 0 1-2.314 3.781l-.106.055c-4.044 2.08-8.914 2.162-12.994.24l-2.302-1.18zm17.717 2.846v2.511a3.877 3.877 0 0 1-3.874 3.874h-9.97a3.877 3.877 0 0 1-3.873-3.874v-2.86l1.32.677c4.734 2.23 10.338 2.135 14.987-.256l.103-.052a6.511 6.511 0 0 0 1.442-1 3.612 3.612 0 0 0-.135.98zm-23.07 14.024a.774.774 0 0 1-.642.336h-.51a.775.775 0 0 1-.643-.336.775.775 0 0 1-.088-.72l.986-2.613.986 2.613a.775.775 0 0 1-.09.72zm-2.008-20.647L8.342 29.283l11.232-5.633v11.395zM64.5 27.427L37.41 13.839a3.62 3.62 0 0 0-3.232 0L7.144 27.398a2.098 2.098 0 0 0-1.162 1.875 2.099 2.099 0 0 0 1.145 1.885l12.447 6.384v11.466l-1.954 5.18a3.002 3.002 0 0 0 2.81 4.063h.51a3.004 3.004 0 0 0 2.81-4.063l-1.954-5.18V38.683l2.917 1.496v4a6.103 6.103 0 0 0 6.096 6.096h9.97a6.103 6.103 0 0 0 6.095-6.096v-2.51c0-.506.275-.97.718-1.212l16.975-9.297c.69-.378 1.11-1.1 1.096-1.887a2.103 2.103 0 0 0-1.163-1.846z" id="a"/>
  </defs>
  <g transform="translate(-5.68 -13)" fill="none" fill-rule="evenodd">
    <mask id="b" fill="#fff">
      <use xlink:href="#a"/>
    </mask>
    <use fill="#000" xlink:href="#a"/>
    <g mask="url(#b)" fill="#000">
      <path d="M0 0h72.125v72.125H0z"/>
    </g>
  </g>
</svg>
