<svg viewBox="0 0 35 51" xmlns="http://www.w3.org/2000/svg" xmlns:xlink="http://www.w3.org/1999/xlink">
  <defs>
    <path d="M27.914 26.761a4.48 4.48 0 0 1 5.982.912 4.48 4.48 0 0 1 5.98-.912V15.452a4.492 4.492 0 0 1 4.487-4.486 4.492 4.492 0 0 1 4.486 4.486v22.856a5.991 5.991 0 0 1 3.988 5.64v3.49c0 7.42-6.037 13.458-13.459 13.458H32.4c-7.421 0-13.458-6.038-13.458-13.459V17.53a4.492 4.492 0 0 1 4.486-4.486 4.492 4.492 0 0 1 4.486 4.486v9.232zM25.92 30.49V17.53a2.495 2.495 0 0 0-2.492-2.492 2.495 2.495 0 0 0-2.493 2.492v29.908c0 6.322 5.144 11.465 11.465 11.465h6.978c6.322 0 11.465-5.143 11.465-11.465v-3.49a3.99 3.99 0 0 0-1.994-3.451v2.455a5.988 5.988 0 0 1-5.981 5.981h-4.486a5.49 5.49 0 0 1-5.484-5.483c0-1.705.783-3.231 2.008-4.237a4.524 4.524 0 0 1-1.01-.921 4.48 4.48 0 0 1-3.49 1.67 4.492 4.492 0 0 1-4.486-4.487v-4.985zm15.193 7.477h5.742V15.452a2.495 2.495 0 0 0-2.492-2.492 2.495 2.495 0 0 0-2.492 2.492V35.474a4.46 4.46 0 0 1-.758 2.492zM25.92 30.49v3.49a.997.997 0 0 0 1.994 0v-1.745 3.24a2.495 2.495 0 0 0 2.492 2.492 2.495 2.495 0 0 0 2.492-2.492v-4.985a2.495 2.495 0 0 0-2.492-2.492 2.495 2.495 0 0 0-2.492 2.492v1.745zm13.957 0a2.495 2.495 0 0 0-2.492-2.492 2.495 2.495 0 0 0-2.493 2.492v4.985a2.495 2.495 0 0 0 2.493 2.492 2.495 2.495 0 0 0 2.492-2.492v-4.985zm-1.495 9.471a3.493 3.493 0 0 0-3.49 3.49 3.493 3.493 0 0 0 3.49 3.489h4.486a3.992 3.992 0 0 0 3.987-3.988v-2.99h-8.473z" id="a"/>
  </defs>
  <g transform="translate(-18 -10)" fill="none" fill-rule="evenodd">
    <mask id="b" fill="#fff">
      <use xlink:href="#a"/>
    </mask>
    <use fill="#000" xlink:href="#a"/>
    <g mask="url(#b)" fill="#000">
      <path d="M0 0h71.503v71.503H0z"/>
    </g>
  </g>
</svg>
