<svg viewBox="0 0 32 48" xmlns="http://www.w3.org/2000/svg" xmlns:xlink="http://www.w3.org/1999/xlink">
  <defs>
    <path d="M43.782 57.434a4.242 4.242 0 0 1-4.237-4.237V41.076c0-1.202.373-2.351 1.08-3.323l1.992-2.74-2.934-4.034a5.612 5.612 0 0 1-1.08-3.322V18.36c0-4.413 3.59-8.003 8.003-8.003a2.357 2.357 0 0 1 2.354 2.354v14.946a5.612 5.612 0 0 1-1.08 3.322l-2.934 4.034 1.992 2.74a5.612 5.612 0 0 1 1.08 3.323v12.12a4.242 4.242 0 0 1-4.236 4.238zm2.824-45.194a6.127 6.127 0 0 0-6.12 6.12v9.297c0 .801.25 1.567.72 2.215l2.576 3.54 2.575-3.54c.47-.648.72-1.414.72-2.215V12.71c0-.26-.211-.471-.47-.471zm-2.824 24.374l-1.634 2.246a3.743 3.743 0 0 0-.72 2.216v12.12a2.357 2.357 0 0 0 2.354 2.355 2.357 2.357 0 0 0 2.353-2.354V41.076c0-.802-.249-1.568-.72-2.216l-1.633-2.246zm-17.89 20.82a4.242 4.242 0 0 1-4.237-4.237V41.495A5.61 5.61 0 0 1 23.31 37.5l1.25-1.25-5.016-5.018a5.61 5.61 0 0 1-1.655-3.994V12.71a2.357 2.357 0 0 1 2.354-2.354 2.357 2.357 0 0 1 2.354 2.354v10.357a.472.472 0 0 0 .941 0V12.71a2.357 2.357 0 0 1 2.354-2.354 2.357 2.357 0 0 1 2.354 2.354v10.357a.472.472 0 0 0 .942 0V12.71a2.357 2.357 0 0 1 2.354-2.354 2.357 2.357 0 0 1 2.353 2.354v14.527a5.61 5.61 0 0 1-1.654 3.994l-5.017 5.017 1.25 1.251a5.61 5.61 0 0 1 1.655 3.995v11.702a4.242 4.242 0 0 1-4.237 4.237zM20.243 12.24c-.26 0-.47.211-.47.47v14.528c0 1.006.391 1.951 1.102 2.663l5.017 5.016 5.017-5.016a3.742 3.742 0 0 0 1.103-2.663V12.71a.472.472 0 0 0-.941 0v10.357a2.357 2.357 0 0 1-2.354 2.354 2.357 2.357 0 0 1-2.354-2.354V12.71a.472.472 0 0 0-.941 0v10.357a2.357 2.357 0 0 1-2.354 2.354 2.357 2.357 0 0 1-2.354-2.354V12.71c0-.26-.212-.471-.47-.471zm5.65 25.341l-1.252 1.25a3.742 3.742 0 0 0-1.103 2.664v11.702a2.357 2.357 0 0 0 2.354 2.354 2.357 2.357 0 0 0 2.354-2.354V41.495a3.742 3.742 0 0 0-1.103-2.664l-1.25-1.25z" id="a"/>
  </defs>
  <g transform="translate(-17 -10)" fill="none" fill-rule="evenodd">
    <mask id="b" fill="#fff">
      <use xlink:href="#a"/>
    </mask>
    <use fill="#000" xlink:href="#a"/>
    <g mask="url(#b)" fill="#000">
      <path d="M17.89 10.357h31.053v47.082H17.89z"/>
    </g>
  </g>
</svg>
