<svg viewBox="0 0 100 100" xmlns="http://www.w3.org/2000/svg">
  <g fill-rule="nonzero" fill="none">
    <circle fill="#000" cx="50" cy="50" r="50"/>
    <g fill="#FFF">
      <path d="M80.982 36.374H76.31l-.111.662c-.334 1.654-.668 3.418-1.002 5.072l-.89-.11c-1.669-.221-3.004.22-4.339.992l-.668.44c-.333.332-.778.662-1.112.993-.223.11-.223.11-.334.22-.334.331-.89 1.103-1.113 1.544-.556.772-1.112 1.875-1.557 2.867-.334.992-.668 2.536-.334 3.859a3.003 3.003 0 0 0 2.114 2.315c1.113.331 2.893-.11 3.672-.44.778-.442 2.002-1.103 2.447-1.985h.223c0 .22-.556 2.094-.556 2.315h4.673l2.336-11.687c.112-.772.334-1.544.445-2.316l.78-4.74zM55.614 55.449c2.114 0 4.006-.662 5.452-1.985.111-.11.222-.22.334-.22a6.59 6.59 0 0 0 1.446-1.544c.445-.551.779-1.103 1.113-1.764.445-.992 1.001-2.426 1.001-3.528 0-.993-.111-1.875-.667-2.646a3.371 3.371 0 0 0-.89-.883c-.223-.11-.446-.33-.668-.44-.779-.331-2.003-.662-2.782-.662-1.557 0-2.225.11-3.449.551-.222.11-.89.331-1.113.551-1.891 1.103-3.115 2.536-4.228 4.631-.222.441-.333.772-.445 1.323-.11.441-.222.882-.222 1.544v.772c.111.772.111 1.323.667 2.095.668.992 2.003 1.764 3.227 1.984.223.11.779.22 1.224.22zM40.927 55.449c2.114 0 4.006-.662 5.452-1.985.556-.44 1.335-1.102 1.78-1.764.78-.992 1.447-2.095 1.78-3.308.446-1.543.557-3.197-.444-4.63-.334-.552-1.002-.993-1.67-1.324-.11-.11-.222-.11-.445-.11l-.445-.11c-1.335-.441-2.781-.441-4.228-.11-.778.11-1.557.44-2.225.771l-.556.331-.223.22c-.222.111-.333.221-.556.332-1.335.992-2.337 2.315-3.004 3.969-.223.44-.334.772-.445 1.323-.111.44-.223.882-.223 1.543v.772c.112.772.112 1.323.668 2.095.334.551.779.882 1.446 1.323.78.33 2.226.662 3.338.662zM29.578 42.108H27.91l-.333 1.984c0 .11-.112.552-.112.662h1.67l-.668 3.418c0 .33-.112.551-.223.882-.111.33-.111.551-.222.882l-.334 1.764c-.223.992-.557 2.536-.668 3.418l-.667 3.418h4.673c0-.22.111-.662.111-.882l2.67-13.12h3.338l.334-1.985c0-.22.111-.441.111-.662H34.14c0-.11.111-.33.111-.551.112-.551.223-.992.445-1.544.223-.551.89-.882 1.78-.882s1.67 0 2.448.331c.223.11.446.22.557.22l.556-2.756c-.111-.11-.445-.11-.667-.22 0 .11-.112 0-.446 0-.556-.11-1-.11-1.669-.22H36.7c-.89 0-1.891.22-2.67.55-.668.22-1.558.662-2.003 1.323-.445.441-.667.552-1.001 1.324-.78.771-1.113 1.543-1.447 2.646zM55.391 61.072l-.445.44-.222.221c-.668.441-1.001.772-1.78 1.323l-.89.552-.668.33c-1.78.662-2.782.993-4.673 1.434h-3.004c-1.335-.11-1.892-.22-3.227-.772-1.335-.441-2.67-1.433-3.672-2.315l-.445-.441c-.667-.662-1.446-1.765-1.891-2.647-.223-.33 0-.33-.445-.33 0 .11.111.33.111.55.223 1.324.779 2.427 1.447 3.419.222.33.333.551.556.772l.556.771c.223.331 1.002 1.103 1.447 1.544.778.662 1.001.882 2.002 1.544 1.78.992 3.895 1.654 6.009 1.654 2.559 0 3.56-.11 6.008-.772.222-.11.445-.11.667-.22.668-.221 1.447-.552 2.003-.773.111 0 .223-.11.334-.11.556-.33.89-.44 1.558-.882l.778-.551c.223-.11.557-.551.78-.551l.667 1.984c.111.33.222.662.334.882.111.11.111.331.111.441 0 .11.111.331.111.441h.223c0-.22 1.669-7.938 1.891-9.372 0-.11.112-.55.112-.55h-9.458c-.111 0 0 0 0 .11l2.56 1.984.222.22c.111-.44.222-.44.333-.33zM19.787 55.118h4.673l.334-1.654c.111-.551.222-.992.334-1.654l1.335-6.505c0-.22.111-.551.111-.772l.445-2.425h-4.673l-.445 2.425c-.334 1.544-2.114 10.364-2.114 10.585zM22.791 40.123h4.562c.111 0 .223-.661.223-.882l.556-2.867h-4.45c-.112 0-.112 0-.112.331l-.556 2.867c-.223.22-.223.44-.223.551z"/>
    </g>
  </g>
</svg>
