<svg viewBox="0 0 90 60" xmlns="http://www.w3.org/2000/svg">
  <defs>
    <linearGradient x1="20.464%" y1="-10.332%" x2="69.194%" y2="89.194%" id="a">
      <stop stop-color="#00FF5F" offset="0%"/>
      <stop stop-color="#00FF5F" offset="30.41%"/>
      <stop stop-color="#1E3C3C" offset="81.87%"/>
      <stop stop-color="#1E3C3C" offset="100%"/>
    </linearGradient>
    <linearGradient x1="40.225%" y1="63.187%" x2="90.784%" y2="-5.034%" id="b">
      <stop stop-color="#00FF5F" offset="0%"/>
      <stop stop-color="#00FF5F" offset="30.41%"/>
      <stop stop-color="#1E3C3C" offset="81.87%"/>
      <stop stop-color="#1E3C3C" offset="100%"/>
    </linearGradient>
  </defs>
  <g fill-rule="nonzero" fill="none">
    <path d="M57.896 59.829h-2.175a.151.151 0 0 1-.15-.151V51.96c0-.86.422-1.298 1.253-1.525 1.359-.377 2.31-.468 3.171-.468 2.854 0 3.971 1.465 3.971 3.503v6.207c0 .075-.06.15-.15.15H61.67a.151.151 0 0 1-.15-.15v-5.995c0-.906-.393-1.616-1.662-1.616-.408 0-.83.03-1.706.257a.145.145 0 0 0-.106.136v7.218c0 .09-.06.15-.151.15M69.735 51.705c-1.238 0-2.008.845-2.144 2.204-.015.091.06.167.15.167h4.002c.09 0 .151-.076.151-.152-.06-1.238-.71-2.22-2.16-2.22zm2.416 8.063a.137.137 0 0 1-.12.06h-1.949c-2.914 0-4.892-1.555-4.892-4.862 0-3.488 2.129-5.043 4.605-5.043 2.703 0 4.47 1.525 4.47 4.787 0 .694-.317 1.027-1.027 1.027h-5.481c-.09 0-.151.075-.151.166.18 1.389 1.238 1.933 2.657 1.933h2.9c.12 0 .181.135.12.226l-1.132 1.706z" fill="#000"/>
    <path d="M80.683 59.753L78.84 56.78c-.06-.091-.197-.091-.242 0l-1.857 2.974c-.03.046-.076.076-.121.076h-2.477c-.12 0-.18-.136-.12-.227l3.065-4.59c.03-.046.03-.106 0-.166l-3.005-4.56c-.06-.091 0-.227.12-.227h2.492c.046 0 .09.03.121.075l1.782 2.84c.06.09.196.09.257 0l1.691-2.84c.03-.045.075-.075.12-.075h2.477c.121 0 .182.136.121.226l-2.9 4.47c-.03.045-.03.106 0 .166l3.066 4.696c.06.091 0 .227-.12.227h-2.522c-.03-.015-.091-.045-.106-.09M89.955 59.421a.14.14 0 0 1-.106.166c-.876.227-1.57.348-2.25.348-2.25 0-3.292-1.224-3.292-3.61v-8.139c0-.075.045-.136.12-.15l2.115-.393c.09-.015.166.045.166.15v2.115c0 .075.06.15.151.15h2.673c.075 0 .15.061.15.152v1.585c0 .076-.06.151-.15.151h-2.673a.151.151 0 0 0-.15.151v4.41c0 .876.316 1.495 1.313 1.495.423 0 .936-.106 1.495-.242.09-.015.166.03.181.12l.257 1.541z" fill="#000"/>
    <path d="M72.423 44.668a3.212 3.212 0 0 1-2.884-4.62L83.023 12.08a3.212 3.212 0 0 1 4.304-1.495c1.6.77 2.28 2.703 1.495 4.303L75.337 42.856a3.26 3.26 0 0 1-2.914 1.812z" fill="#1E3C3C"/>
    <path d="M72.423 44.668a3.21 3.21 0 0 1-2.084-.77l-45-38.145a3.211 3.211 0 0 1-.378-4.53 3.211 3.211 0 0 1 4.53-.377l45 38.144a3.211 3.211 0 0 1 .378 4.53 3.146 3.146 0 0 1-2.446 1.148z" fill="url(#a)"/>
    <path d="M3.367 54.529a3.22 3.22 0 0 1-2.93-1.873 3.227 3.227 0 0 1 1.586-4.273l82.54-37.828a3.227 3.227 0 0 1 4.274 1.586 3.227 3.227 0 0 1-1.585 4.273L4.712 54.227c-.439.21-.892.302-1.345.302z" fill="url(#b)"/>
    <path d="M3.367 54.529c-.483 0-.981-.106-1.434-.348-1.586-.8-2.235-2.733-1.435-4.319L24.554 1.857c.8-1.585 2.733-2.235 4.318-1.434 1.586.8 2.235 2.733 1.435 4.319L6.252 52.747a3.23 3.23 0 0 1-2.885 1.782z" fill="#00FF5F"/>
  </g>
</svg>
