<svg viewBox="0 0 100 100" xmlns="http://www.w3.org/2000/svg">
  <g fill="none" fill-rule="evenodd">
    <path d="M50 0C22.333 0 0 22.333 0 50s22.333 50 50 50 50-22.333 50-50c0-27.556-22.333-50-49.889-50H50z" fill="#000"/>
    <path d="M62.556 25.667c5 0 9 21 9 46.889h7.333c0-27.89-7.222-50.445-16.222-50.445C57.556 22.111 53 28.89 50 39.556 47 28.889 42.444 22.11 37.333 22.11c-8.889 0-16.222 22.556-16.222 50.445h7.222c0-25.89 4-46.89 9-46.89s9 19.334 9 43.223h7.223c0-23.778 4.11-43.222 9-43.222zM81 70.556h.333L82 72.222l.667-1.666H83v2h-.222v-1.667l-.667 1.667h-.222l-.667-1.667v1.667H81v-2z" fill="#FFF"/>
    <path d="M83.556 72.556h-.223v-2h.778c.445 0 .667.222.667.555 0 .333-.222.556-.445.556l.556.889h-.445l-.555-.89h-.445l.112.89zm.333-1.112c.333 0 .555 0 .555-.333s-.222-.333-.444-.333h-.444v.666h.333z" fill="#FFF" fill-rule="nonzero"/>
  </g>
</svg>
