<svg viewBox="0 0 45 51" xmlns="http://www.w3.org/2000/svg" xmlns:xlink="http://www.w3.org/1999/xlink">
  <defs>
    <path d="M37.634 25.285a3.99 3.99 0 0 1-2.38 3.65l-8.377 3.688-8.526-3.699a3.985 3.985 0 0 1-2.4-3.658v-8.319a3.992 3.992 0 0 1 3.987-3.987h.997v9.294c0 .82.492 1.547 1.254 1.852l4.358 1.743c.237.094.503.094.74 0l4.358-1.743a1.985 1.985 0 0 0 1.253-1.852V12.96h.748a3.992 3.992 0 0 1 3.988 3.987v8.338zm-6.73 13.875v15.67c0 2.2-1.788 3.988-3.987 3.988a3.992 3.992 0 0 1-3.988-3.987V39.14a3.99 3.99 0 0 1 2.38-3.65l1.574-.692 1.621.703a3.985 3.985 0 0 1 2.4 3.658zm2.742-28.194h-.748c-1.1 0-1.993.894-1.993 1.994v9.294l-3.988 1.595-3.988-1.595V12.96c0-1.1-.894-1.994-1.994-1.994h-.997a5.988 5.988 0 0 0-5.981 5.981v8.319a5.98 5.98 0 0 0 3.6 5.487l6.84 2.967a5.98 5.98 0 0 0-3.462 5.421v15.69a5.988 5.988 0 0 0 5.982 5.981 5.988 5.988 0 0 0 5.981-5.981V39.16a5.977 5.977 0 0 0-3.532-5.455l6.69-2.947a5.983 5.983 0 0 0 3.572-5.474v-8.338a5.988 5.988 0 0 0-5.982-5.981zM55.5 36.8l-1.374 1.375a.997.997 0 0 0-.292.705v15.95a3.992 3.992 0 0 1-3.988 3.989 3.992 3.992 0 0 1-3.988-3.988V38.88a.997.997 0 0 0-.291-.705L44.192 36.8a1.12 1.12 0 0 1 .791-1.908h9.727a1.119 1.119 0 0 1 .79 1.908zm-7.648-12.36l1.994-1.424 1.994 1.423v8.46h-3.988v-8.46zm-.842-5.901l1.594-5.579h2.484l1.594 5.579-2.836 2.026-2.836-2.026zm7.7 14.36h-.876v-8.716c0-.483-.235-.938-.626-1.217L51.56 21.79l2.566-1.833a1.5 1.5 0 0 0 .57-1.628h-.001l-1.794-6.278a1.502 1.502 0 0 0-1.438-1.085H48.23c-.665 0-1.256.446-1.439 1.085l-1.793 6.278a1.5 1.5 0 0 0 .568 1.628l2.566 1.833-1.645 1.175c-.393.28-.628.735-.628 1.218v8.716h-.875a3.115 3.115 0 0 0-3.112 3.11c0 .833.324 1.614.91 2.201l1.084 1.083V54.83a5.989 5.989 0 0 0 5.981 5.981 5.988 5.988 0 0 0 5.982-5.981V39.293l1.082-1.082a3.09 3.09 0 0 0 .911-2.201 3.115 3.115 0 0 0-3.111-3.111z" id="a"/>
  </defs>
  <g transform="translate(-13 -10)" fill="none" fill-rule="evenodd">
    <mask id="b" fill="#fff">
      <use xlink:href="#a"/>
    </mask>
    <use fill="#231F20" xlink:href="#a"/>
    <g mask="url(#b)" fill="#000">
      <path d="M0 0h72.125v72.125H0z"/>
    </g>
  </g>
</svg>
