<svg viewBox="0 0 56 40" xmlns="http://www.w3.org/2000/svg" xmlns:xlink="http://www.w3.org/1999/xlink">
  <defs>
    <path d="M31.403 55.33a3.992 3.992 0 0 1-3.988-3.988 3.992 3.992 0 0 1 3.988-3.988 3.992 3.992 0 0 1 3.988 3.988 3.992 3.992 0 0 1-3.988 3.987zm0-5.982c-1.1 0-1.994.894-1.994 1.994s.894 1.993 1.994 1.993 1.994-.894 1.994-1.993c0-1.1-.894-1.994-1.994-1.994zm15.95 5.981a3.992 3.992 0 0 1-3.987-3.987 3.992 3.992 0 0 1 3.988-3.988 3.992 3.992 0 0 1 3.988 3.988 3.992 3.992 0 0 1-3.988 3.987zm0-5.981c-1.099 0-1.993.894-1.993 1.994s.894 1.993 1.994 1.993 1.994-.894 1.994-1.993c0-1.1-.895-1.994-1.994-1.994zm-18.442-7.976h-3.909c-.824 0-1.495.671-1.495 1.496 0 .824.671 1.495 1.495 1.495h30.52a.997.997 0 0 1 0 1.994h-30.52a3.494 3.494 0 0 1-3.489-3.49 3.494 3.494 0 0 1 3.49-3.489h1.067l-4.854-15.95h-9.253a3.493 3.493 0 0 1-3.49-3.49 3.493 3.493 0 0 1 3.49-3.489h7.366c1.105 0 2.063.71 2.384 1.767l.98 3.218h38.31c.848 0 1.629.424 2.09 1.134.462.71.532 1.596.188 2.37L57.556 37.82a5.986 5.986 0 0 1-5.466 3.552H28.91zm1.495-1.994H52.09c1.574 0 3.004-.93 3.644-2.368l5.725-12.881a.485.485 0 0 0-.038-.475.485.485 0 0 0-.417-.226H23.3l4.854 15.95h2.252zM11.963 18.443c-.824 0-1.495.671-1.495 1.495 0 .825.67 1.496 1.495 1.496h8.645l-.803-2.638a.495.495 0 0 0-.476-.353h-7.366z" id="a"/>
  </defs>
  <g transform="translate(-8 -16)" fill="none" fill-rule="evenodd">
    <mask id="b" fill="#fff">
      <use xlink:href="#a"/>
    </mask>
    <use fill="#000" xlink:href="#a"/>
    <g mask="url(#b)" fill="#000">
      <path d="M0 0h72.125v72.125H0z"/>
    </g>
  </g>
</svg>
