<svg viewBox="0 0 55 51" xmlns="http://www.w3.org/2000/svg" xmlns:xlink="http://www.w3.org/1999/xlink">
  <defs>
    <path d="M19.682 60.812a4.491 4.491 0 0 1-4.486-4.486 4.491 4.491 0 0 1 4.486-4.486 4.491 4.491 0 0 1 4.486 4.486 4.491 4.491 0 0 1-4.486 4.486zm0-6.978a2.495 2.495 0 0 0-2.493 2.492 2.495 2.495 0 0 0 2.493 2.492 2.495 2.495 0 0 0 2.492-2.492 2.495 2.495 0 0 0-2.492-2.492zm26.917 6.978a4.491 4.491 0 0 1-4.486-4.486 4.491 4.491 0 0 1 4.486-4.486 4.491 4.491 0 0 1 4.486 4.486 4.491 4.491 0 0 1-4.486 4.486zm0-6.978a2.495 2.495 0 0 0-2.493 2.492 2.495 2.495 0 0 0 2.493 2.492 2.495 2.495 0 0 0 2.492-2.492 2.495 2.495 0 0 0-2.492-2.492zm11.068-2.99H14.655a6.195 6.195 0 0 1-4.564-2.014 6.194 6.194 0 0 1-1.592-4.73l.003-.028a6.137 6.137 0 0 1 2.254-4.233 6.132 6.132 0 0 1 4.603-1.347l26.201 2.994c.483.057.946-.118 1.274-.477.313-.343.447-.795.372-1.25l-20.3-2.304a5.94 5.94 0 0 1-4.047-2.271 5.937 5.937 0 0 1-1.206-4.48l1.8-14.494a5.99 5.99 0 0 1 5.936-5.244h9.415a5.987 5.987 0 0 1 5.876 4.863l4.21 22.115 13.363 1.517a5.186 5.186 0 0 1 4.603 5.156v1.038a5.195 5.195 0 0 1-5.19 5.188zM25.389 12.96a3.994 3.994 0 0 0-3.957 3.496L19.63 30.961a3.962 3.962 0 0 0 .802 2.999 3.957 3.957 0 0 0 2.697 1.514l19.685 2.235-4.093-21.507a3.992 3.992 0 0 0-3.918-3.242H25.39zM10.487 44.251l-.002.026a4.144 4.144 0 0 0 1.078 3.208 4.143 4.143 0 0 0 3.092 1.364h43.012a3.198 3.198 0 0 0 3.195-3.194v-1.038a3.193 3.193 0 0 0-2.834-3.174l-12.806-1.454a3.453 3.453 0 0 1-.916 2.365 3.462 3.462 0 0 1-2.972 1.113l-26.2-2.994a4.164 4.164 0 0 0-3.12.912 4.156 4.156 0 0 0-1.527 2.866z" id="a"/>
  </defs>
  <g transform="translate(-8 -10)" fill="none" fill-rule="evenodd">
    <mask id="b" fill="#fff">
      <use xlink:href="#a"/>
    </mask>
    <use fill="#000" xlink:href="#a"/>
    <g mask="url(#b)" fill="#000">
      <path d="M0 0h71.503v71.503H0z"/>
    </g>
  </g>
</svg>
