<svg viewBox="0 0 51 51" xmlns="http://www.w3.org/2000/svg" xmlns:xlink="http://www.w3.org/1999/xlink">
  <defs>
    <path d="M39.486 56.825l-.057 1.585a2.483 2.483 0 0 1-2.49 2.402h-2.093a2.481 2.481 0 0 1-2.49-2.413l-.05-1.574h-2.897a2.495 2.495 0 0 1-2.492-2.493V53.01c0-1.149.779-2.143 1.893-2.42l3.274-.81-.391-12.894H14.455a3.493 3.493 0 0 1-3.489-3.49v-1.675c0-1.519.97-2.853 2.415-3.32l17.879-5.785-.245-8.055a3.463 3.463 0 0 1 .983-2.536 3.462 3.462 0 0 1 2.505-1.059h2.83c.945 0 1.83.373 2.492 1.048a3.46 3.46 0 0 1 .996 2.514l-.097 4.655a3.49 3.49 0 0 1-2.414 3.247l-5.012 1.622.329 10.84h4.652l.293-8.137c.015-.746.37-1.448.975-1.91a2.478 2.478 0 0 1 2.113-.442l16.498 4.07a3.482 3.482 0 0 1 2.654 3.387v1.537a3.493 3.493 0 0 1-3.489 3.49h-17.12l-.464 12.895 3.234.808a2.489 2.489 0 0 1 1.889 2.418v1.324a2.495 2.495 0 0 1-2.493 2.493h-2.883zm.072-1.994h2.811a.5.5 0 0 0 .499-.499v-1.324a.498.498 0 0 0-.378-.484l-2.824-.705-.108 3.012zm-1.84-4.288v-.048l.49-13.609h-4.52l.413 13.621a.99.99 0 0 1-.137.551.994.994 0 0 1-.62.463l-4.055 1.005a.497.497 0 0 0-.378.484v1.322a.5.5 0 0 0 .498.499h3.805a1.015 1.015 0 0 1 .026 0 .994.994 0 0 1 1.028.965l.08 2.54c.008.27.227.482.498.482h2.093c.27 0 .488-.21.498-.48l.28-7.795zM34.502 12.96c-.408 0-.79.162-1.074.454a1.486 1.486 0 0 0-.421 1.087l.227 7.475 4.46-1.443a1.497 1.497 0 0 0 1.035-1.392l.097-4.654a1.484 1.484 0 0 0-.427-1.078 1.484 1.484 0 0 0-1.068-.449h-2.83zm-3.18 11.73l-17.328 5.608c-.619.2-1.035.772-1.035 1.423v1.676c0 .824.67 1.495 1.495 1.495h17.177l-.31-10.201zm8.952 10.202h17.048c.825 0 1.495-.67 1.495-1.495V31.86c0-.69-.467-1.287-1.137-1.452l-16.499-4.07a.488.488 0 0 0-.422.089.489.489 0 0 0-.195.385l-.29 8.08z" id="a"/>
  </defs>
  <g transform="translate(-10 -10)" fill="none" fill-rule="evenodd">
    <mask id="b" fill="#fff">
      <use xlink:href="#a"/>
    </mask>
    <use fill="#000" xlink:href="#a"/>
    <g mask="url(#b)" fill="#000">
      <path d="M0 0h72.125v72.125H0z"/>
    </g>
  </g>
</svg>
