<svg viewBox="0 0 130 130" xmlns="http://www.w3.org/2000/svg">
  <g fill="none" fill-rule="evenodd">
    <circle fill="#000" cx="65" cy="65" r="65"/>
    <path d="M29.93 68.236c0 4.232 2.773 6.976 6.442 6.976a6.486 6.486 0 0 0 6.443-6.976V52h3.928v26.231h-3.9v-2.427a9.461 9.461 0 0 1-6.933 2.89 9.721 9.721 0 0 1-9.894-10.27V52h3.929l-.015 16.236zm20.685 10.11V52h3.784v9.562a9.447 9.447 0 0 1 6.789-2.889c5.516 0 9.988 4.472 9.988 9.989 0 5.516-4.472 9.988-9.988 9.988a9.533 9.533 0 0 1-6.818-2.889v2.398l-3.755.188zm3.712-9.518a6.572 6.572 0 1 0 6.6-6.63 6.587 6.587 0 0 0-6.6 6.63zm19.153 0a9.822 9.822 0 0 1 9.822-9.938 9.476 9.476 0 0 1 9.563 9.938v1.242H77.293a6.413 6.413 0 0 0 6.327 5.431 6.572 6.572 0 0 0 5.518-2.932l2.73 2.022a10.01 10.01 0 0 1-8.248 4.088 9.866 9.866 0 0 1-10.111-9.967l-.029.116zm9.75-6.63a6.023 6.023 0 0 0-5.778 4.868H89.11a5.951 5.951 0 0 0-5.893-5.013l.014.145zm22.23.26h-1.603c-2.47 0-4.334 1.906-4.334 4.868v10.862h-3.712V59.12h3.741v2.355a5.113 5.113 0 0 1 4.58-2.514h1.328v3.496z" fill="#FFF" fill-rule="nonzero"/>
  </g>
</svg>
