<svg>
  <symbol id="icon-uber" viewBox="0 0 130 130" xmlns="http://www.w3.org/2000/svg">
    <g fill="none" fill-rule="evenodd">
      <circle fill="#000" cx="65" cy="65" r="65"/>
      <path d="M29.93 68.236c0 4.232 2.773 6.976 6.442 6.976a6.486 6.486 0 0 0 6.443-6.976V52h3.928v26.231h-3.9v-2.427a9.461 9.461 0 0 1-6.933 2.89 9.721 9.721 0 0 1-9.894-10.27V52h3.929l-.015 16.236zm20.685 10.11V52h3.784v9.562a9.447 9.447 0 0 1 6.789-2.889c5.516 0 9.988 4.472 9.988 9.989 0 5.516-4.472 9.988-9.988 9.988a9.533 9.533 0 0 1-6.818-2.889v2.398l-3.755.188zm3.712-9.518a6.572 6.572 0 1 0 6.6-6.63 6.587 6.587 0 0 0-6.6 6.63zm19.153 0a9.822 9.822 0 0 1 9.822-9.938 9.476 9.476 0 0 1 9.563 9.938v1.242H77.293a6.413 6.413 0 0 0 6.327 5.431 6.572 6.572 0 0 0 5.518-2.932l2.73 2.022a10.01 10.01 0 0 1-8.248 4.088 9.866 9.866 0 0 1-10.111-9.967l-.029.116zm9.75-6.63a6.023 6.023 0 0 0-5.778 4.868H89.11a5.951 5.951 0 0 0-5.893-5.013l.014.145zm22.23.26h-1.603c-2.47 0-4.334 1.906-4.334 4.868v10.862h-3.712V59.12h3.741v2.355a5.113 5.113 0 0 1 4.58-2.514h1.328v3.496z" fill="#FFF" fill-rule="nonzero"/>
    </g>
  </symbol>

  <symbol id="icon-travel" viewBox="0 0 51 51" xmlns="http://www.w3.org/2000/svg" xmlns:xlink="http://www.w3.org/1999/xlink">
    <defs>
      <path d="M39.486 56.825l-.057 1.585a2.483 2.483 0 0 1-2.49 2.402h-2.093a2.481 2.481 0 0 1-2.49-2.413l-.05-1.574h-2.897a2.495 2.495 0 0 1-2.492-2.493V53.01c0-1.149.779-2.143 1.893-2.42l3.274-.81-.391-12.894H14.455a3.493 3.493 0 0 1-3.489-3.49v-1.675c0-1.519.97-2.853 2.415-3.32l17.879-5.785-.245-8.055a3.463 3.463 0 0 1 .983-2.536 3.462 3.462 0 0 1 2.505-1.059h2.83c.945 0 1.83.373 2.492 1.048a3.46 3.46 0 0 1 .996 2.514l-.097 4.655a3.49 3.49 0 0 1-2.414 3.247l-5.012 1.622.329 10.84h4.652l.293-8.137c.015-.746.37-1.448.975-1.91a2.478 2.478 0 0 1 2.113-.442l16.498 4.07a3.482 3.482 0 0 1 2.654 3.387v1.537a3.493 3.493 0 0 1-3.489 3.49h-17.12l-.464 12.895 3.234.808a2.489 2.489 0 0 1 1.889 2.418v1.324a2.495 2.495 0 0 1-2.493 2.493h-2.883zm.072-1.994h2.811a.5.5 0 0 0 .499-.499v-1.324a.498.498 0 0 0-.378-.484l-2.824-.705-.108 3.012zm-1.84-4.288v-.048l.49-13.609h-4.52l.413 13.621a.99.99 0 0 1-.137.551.994.994 0 0 1-.62.463l-4.055 1.005a.497.497 0 0 0-.378.484v1.322a.5.5 0 0 0 .498.499h3.805a1.015 1.015 0 0 1 .026 0 .994.994 0 0 1 1.028.965l.08 2.54c.008.27.227.482.498.482h2.093c.27 0 .488-.21.498-.48l.28-7.795zM34.502 12.96c-.408 0-.79.162-1.074.454a1.486 1.486 0 0 0-.421 1.087l.227 7.475 4.46-1.443a1.497 1.497 0 0 0 1.035-1.392l.097-4.654a1.484 1.484 0 0 0-.427-1.078 1.484 1.484 0 0 0-1.068-.449h-2.83zm-3.18 11.73l-17.328 5.608c-.619.2-1.035.772-1.035 1.423v1.676c0 .824.67 1.495 1.495 1.495h17.177l-.31-10.201zm8.952 10.202h17.048c.825 0 1.495-.67 1.495-1.495V31.86c0-.69-.467-1.287-1.137-1.452l-16.499-4.07a.488.488 0 0 0-.422.089.489.489 0 0 0-.195.385l-.29 8.08z" id="a"/>
    </defs>
    <g transform="translate(-10 -10)" fill="none" fill-rule="evenodd">
      <mask id="b" fill="#fff">
        <use xlink:href="#a"/>
      </mask>
      <use fill="#000" xlink:href="#a"/>
      <g mask="url(#b)" fill="#000">
        <path d="M0 0h72.125v72.125H0z"/>
      </g>
    </g>
  </symbol>

  <symbol id="icon-transport" viewBox="0 0 55 51" xmlns="http://www.w3.org/2000/svg" xmlns:xlink="http://www.w3.org/1999/xlink">
    <defs>
      <path d="M19.682 60.812a4.491 4.491 0 0 1-4.486-4.486 4.491 4.491 0 0 1 4.486-4.486 4.491 4.491 0 0 1 4.486 4.486 4.491 4.491 0 0 1-4.486 4.486zm0-6.978a2.495 2.495 0 0 0-2.493 2.492 2.495 2.495 0 0 0 2.493 2.492 2.495 2.495 0 0 0 2.492-2.492 2.495 2.495 0 0 0-2.492-2.492zm26.917 6.978a4.491 4.491 0 0 1-4.486-4.486 4.491 4.491 0 0 1 4.486-4.486 4.491 4.491 0 0 1 4.486 4.486 4.491 4.491 0 0 1-4.486 4.486zm0-6.978a2.495 2.495 0 0 0-2.493 2.492 2.495 2.495 0 0 0 2.493 2.492 2.495 2.495 0 0 0 2.492-2.492 2.495 2.495 0 0 0-2.492-2.492zm11.068-2.99H14.655a6.195 6.195 0 0 1-4.564-2.014 6.194 6.194 0 0 1-1.592-4.73l.003-.028a6.137 6.137 0 0 1 2.254-4.233 6.132 6.132 0 0 1 4.603-1.347l26.201 2.994c.483.057.946-.118 1.274-.477.313-.343.447-.795.372-1.25l-20.3-2.304a5.94 5.94 0 0 1-4.047-2.271 5.937 5.937 0 0 1-1.206-4.48l1.8-14.494a5.99 5.99 0 0 1 5.936-5.244h9.415a5.987 5.987 0 0 1 5.876 4.863l4.21 22.115 13.363 1.517a5.186 5.186 0 0 1 4.603 5.156v1.038a5.195 5.195 0 0 1-5.19 5.188zM25.389 12.96a3.994 3.994 0 0 0-3.957 3.496L19.63 30.961a3.962 3.962 0 0 0 .802 2.999 3.957 3.957 0 0 0 2.697 1.514l19.685 2.235-4.093-21.507a3.992 3.992 0 0 0-3.918-3.242H25.39zM10.487 44.251l-.002.026a4.144 4.144 0 0 0 1.078 3.208 4.143 4.143 0 0 0 3.092 1.364h43.012a3.198 3.198 0 0 0 3.195-3.194v-1.038a3.193 3.193 0 0 0-2.834-3.174l-12.806-1.454a3.453 3.453 0 0 1-.916 2.365 3.462 3.462 0 0 1-2.972 1.113l-26.2-2.994a4.164 4.164 0 0 0-3.12.912 4.156 4.156 0 0 0-1.527 2.866z" id="a"/>
    </defs>
    <g transform="translate(-8 -10)" fill="none" fill-rule="evenodd">
      <mask id="b" fill="#fff">
        <use xlink:href="#a"/>
      </mask>
      <use fill="#000" xlink:href="#a"/>
      <g mask="url(#b)" fill="#000">
        <path d="M0 0h71.503v71.503H0z"/>
      </g>
    </g>
  </symbol>

  <symbol id="icon-shop" viewBox="0 0 56 40" xmlns="http://www.w3.org/2000/svg" xmlns:xlink="http://www.w3.org/1999/xlink">
    <defs>
      <path d="M31.403 55.33a3.992 3.992 0 0 1-3.988-3.988 3.992 3.992 0 0 1 3.988-3.988 3.992 3.992 0 0 1 3.988 3.988 3.992 3.992 0 0 1-3.988 3.987zm0-5.982c-1.1 0-1.994.894-1.994 1.994s.894 1.993 1.994 1.993 1.994-.894 1.994-1.993c0-1.1-.894-1.994-1.994-1.994zm15.95 5.981a3.992 3.992 0 0 1-3.987-3.987 3.992 3.992 0 0 1 3.988-3.988 3.992 3.992 0 0 1 3.988 3.988 3.992 3.992 0 0 1-3.988 3.987zm0-5.981c-1.099 0-1.993.894-1.993 1.994s.894 1.993 1.994 1.993 1.994-.894 1.994-1.993c0-1.1-.895-1.994-1.994-1.994zm-18.442-7.976h-3.909c-.824 0-1.495.671-1.495 1.496 0 .824.671 1.495 1.495 1.495h30.52a.997.997 0 0 1 0 1.994h-30.52a3.494 3.494 0 0 1-3.489-3.49 3.494 3.494 0 0 1 3.49-3.489h1.067l-4.854-15.95h-9.253a3.493 3.493 0 0 1-3.49-3.49 3.493 3.493 0 0 1 3.49-3.489h7.366c1.105 0 2.063.71 2.384 1.767l.98 3.218h38.31c.848 0 1.629.424 2.09 1.134.462.71.532 1.596.188 2.37L57.556 37.82a5.986 5.986 0 0 1-5.466 3.552H28.91zm1.495-1.994H52.09c1.574 0 3.004-.93 3.644-2.368l5.725-12.881a.485.485 0 0 0-.038-.475.485.485 0 0 0-.417-.226H23.3l4.854 15.95h2.252zM11.963 18.443c-.824 0-1.495.671-1.495 1.495 0 .825.67 1.496 1.495 1.496h8.645l-.803-2.638a.495.495 0 0 0-.476-.353h-7.366z" id="a"/>
    </defs>
    <g transform="translate(-8 -16)" fill="none" fill-rule="evenodd">
      <mask id="b" fill="#fff">
        <use xlink:href="#a"/>
      </mask>
      <use fill="#000" xlink:href="#a"/>
      <g mask="url(#b)" fill="#000">
        <path d="M0 0h72.125v72.125H0z"/>
      </g>
    </g>
  </symbol>

  <symbol id="icon-logo" viewBox="0 0 90 60" xmlns="http://www.w3.org/2000/svg">
    <defs>
      <linearGradient x1="20.464%" y1="-10.332%" x2="69.194%" y2="89.194%" id="a">
        <stop stop-color="#00FF5F" offset="0%"/>
        <stop stop-color="#00FF5F" offset="30.41%"/>
        <stop stop-color="#1E3C3C" offset="81.87%"/>
        <stop stop-color="#1E3C3C" offset="100%"/>
      </linearGradient>
      <linearGradient x1="40.225%" y1="63.187%" x2="90.784%" y2="-5.034%" id="b">
        <stop stop-color="#00FF5F" offset="0%"/>
        <stop stop-color="#00FF5F" offset="30.41%"/>
        <stop stop-color="#1E3C3C" offset="81.87%"/>
        <stop stop-color="#1E3C3C" offset="100%"/>
      </linearGradient>
    </defs>
    <g fill-rule="nonzero" fill="none">
      <path d="M57.896 59.829h-2.175a.151.151 0 0 1-.15-.151V51.96c0-.86.422-1.298 1.253-1.525 1.359-.377 2.31-.468 3.171-.468 2.854 0 3.971 1.465 3.971 3.503v6.207c0 .075-.06.15-.15.15H61.67a.151.151 0 0 1-.15-.15v-5.995c0-.906-.393-1.616-1.662-1.616-.408 0-.83.03-1.706.257a.145.145 0 0 0-.106.136v7.218c0 .09-.06.15-.151.15M69.735 51.705c-1.238 0-2.008.845-2.144 2.204-.015.091.06.167.15.167h4.002c.09 0 .151-.076.151-.152-.06-1.238-.71-2.22-2.16-2.22zm2.416 8.063a.137.137 0 0 1-.12.06h-1.949c-2.914 0-4.892-1.555-4.892-4.862 0-3.488 2.129-5.043 4.605-5.043 2.703 0 4.47 1.525 4.47 4.787 0 .694-.317 1.027-1.027 1.027h-5.481c-.09 0-.151.075-.151.166.18 1.389 1.238 1.933 2.657 1.933h2.9c.12 0 .181.135.12.226l-1.132 1.706z" fill="#000"/>
      <path d="M80.683 59.753L78.84 56.78c-.06-.091-.197-.091-.242 0l-1.857 2.974c-.03.046-.076.076-.121.076h-2.477c-.12 0-.18-.136-.12-.227l3.065-4.59c.03-.046.03-.106 0-.166l-3.005-4.56c-.06-.091 0-.227.12-.227h2.492c.046 0 .09.03.121.075l1.782 2.84c.06.09.196.09.257 0l1.691-2.84c.03-.045.075-.075.12-.075h2.477c.121 0 .182.136.121.226l-2.9 4.47c-.03.045-.03.106 0 .166l3.066 4.696c.06.091 0 .227-.12.227h-2.522c-.03-.015-.091-.045-.106-.09M89.955 59.421a.14.14 0 0 1-.106.166c-.876.227-1.57.348-2.25.348-2.25 0-3.292-1.224-3.292-3.61v-8.139c0-.075.045-.136.12-.15l2.115-.393c.09-.015.166.045.166.15v2.115c0 .075.06.15.151.15h2.673c.075 0 .15.061.15.152v1.585c0 .076-.06.151-.15.151h-2.673a.151.151 0 0 0-.15.151v4.41c0 .876.316 1.495 1.313 1.495.423 0 .936-.106 1.495-.242.09-.015.166.03.181.12l.257 1.541z" fill="#000"/>
      <path d="M72.423 44.668a3.212 3.212 0 0 1-2.884-4.62L83.023 12.08a3.212 3.212 0 0 1 4.304-1.495c1.6.77 2.28 2.703 1.495 4.303L75.337 42.856a3.26 3.26 0 0 1-2.914 1.812z" fill="#1E3C3C"/>
      <path d="M72.423 44.668a3.21 3.21 0 0 1-2.084-.77l-45-38.145a3.211 3.211 0 0 1-.378-4.53 3.211 3.211 0 0 1 4.53-.377l45 38.144a3.211 3.211 0 0 1 .378 4.53 3.146 3.146 0 0 1-2.446 1.148z" fill="url(#a)"/>
      <path d="M3.367 54.529a3.22 3.22 0 0 1-2.93-1.873 3.227 3.227 0 0 1 1.586-4.273l82.54-37.828a3.227 3.227 0 0 1 4.274 1.586 3.227 3.227 0 0 1-1.585 4.273L4.712 54.227c-.439.21-.892.302-1.345.302z" fill="url(#b)"/>
      <path d="M3.367 54.529c-.483 0-.981-.106-1.434-.348-1.586-.8-2.235-2.733-1.435-4.319L24.554 1.857c.8-1.585 2.733-2.235 4.318-1.434 1.586.8 2.235 2.733 1.435 4.319L6.252 52.747a3.23 3.23 0 0 1-2.885 1.782z" fill="#00FF5F"/>
    </g>
  </symbol>

  <symbol id="icon-services" viewBox="0 0 45 51" xmlns="http://www.w3.org/2000/svg" xmlns:xlink="http://www.w3.org/1999/xlink">
    <defs>
      <path d="M37.634 25.285a3.99 3.99 0 0 1-2.38 3.65l-8.377 3.688-8.526-3.699a3.985 3.985 0 0 1-2.4-3.658v-8.319a3.992 3.992 0 0 1 3.987-3.987h.997v9.294c0 .82.492 1.547 1.254 1.852l4.358 1.743c.237.094.503.094.74 0l4.358-1.743a1.985 1.985 0 0 0 1.253-1.852V12.96h.748a3.992 3.992 0 0 1 3.988 3.987v8.338zm-6.73 13.875v15.67c0 2.2-1.788 3.988-3.987 3.988a3.992 3.992 0 0 1-3.988-3.987V39.14a3.99 3.99 0 0 1 2.38-3.65l1.574-.692 1.621.703a3.985 3.985 0 0 1 2.4 3.658zm2.742-28.194h-.748c-1.1 0-1.993.894-1.993 1.994v9.294l-3.988 1.595-3.988-1.595V12.96c0-1.1-.894-1.994-1.994-1.994h-.997a5.988 5.988 0 0 0-5.981 5.981v8.319a5.98 5.98 0 0 0 3.6 5.487l6.84 2.967a5.98 5.98 0 0 0-3.462 5.421v15.69a5.988 5.988 0 0 0 5.982 5.981 5.988 5.988 0 0 0 5.981-5.981V39.16a5.977 5.977 0 0 0-3.532-5.455l6.69-2.947a5.983 5.983 0 0 0 3.572-5.474v-8.338a5.988 5.988 0 0 0-5.982-5.981zM55.5 36.8l-1.374 1.375a.997.997 0 0 0-.292.705v15.95a3.992 3.992 0 0 1-3.988 3.989 3.992 3.992 0 0 1-3.988-3.988V38.88a.997.997 0 0 0-.291-.705L44.192 36.8a1.12 1.12 0 0 1 .791-1.908h9.727a1.119 1.119 0 0 1 .79 1.908zm-7.648-12.36l1.994-1.424 1.994 1.423v8.46h-3.988v-8.46zm-.842-5.901l1.594-5.579h2.484l1.594 5.579-2.836 2.026-2.836-2.026zm7.7 14.36h-.876v-8.716c0-.483-.235-.938-.626-1.217L51.56 21.79l2.566-1.833a1.5 1.5 0 0 0 .57-1.628h-.001l-1.794-6.278a1.502 1.502 0 0 0-1.438-1.085H48.23c-.665 0-1.256.446-1.439 1.085l-1.793 6.278a1.5 1.5 0 0 0 .568 1.628l2.566 1.833-1.645 1.175c-.393.28-.628.735-.628 1.218v8.716h-.875a3.115 3.115 0 0 0-3.112 3.11c0 .833.324 1.614.91 2.201l1.084 1.083V54.83a5.989 5.989 0 0 0 5.981 5.981 5.988 5.988 0 0 0 5.982-5.981V39.293l1.082-1.082a3.09 3.09 0 0 0 .911-2.201 3.115 3.115 0 0 0-3.111-3.111z" id="a"/>
    </defs>
    <g transform="translate(-13 -10)" fill="none" fill-rule="evenodd">
      <mask id="b" fill="#fff">
        <use xlink:href="#a"/>
      </mask>
      <use fill="#231F20" xlink:href="#a"/>
      <g mask="url(#b)" fill="#000">
        <path d="M0 0h72.125v72.125H0z"/>
      </g>
    </g>
  </symbol>

  <symbol id="icon-mc" viewBox="0 0 100 100" xmlns="http://www.w3.org/2000/svg">
    <g fill="none" fill-rule="evenodd">
      <path d="M50 0C22.333 0 0 22.333 0 50s22.333 50 50 50 50-22.333 50-50c0-27.556-22.333-50-49.889-50H50z" fill="#000"/>
      <path d="M62.556 25.667c5 0 9 21 9 46.889h7.333c0-27.89-7.222-50.445-16.222-50.445C57.556 22.111 53 28.89 50 39.556 47 28.889 42.444 22.11 37.333 22.11c-8.889 0-16.222 22.556-16.222 50.445h7.222c0-25.89 4-46.89 9-46.89s9 19.334 9 43.223h7.223c0-23.778 4.11-43.222 9-43.222zM81 70.556h.333L82 72.222l.667-1.666H83v2h-.222v-1.667l-.667 1.667h-.222l-.667-1.667v1.667H81v-2z" fill="#FFF"/>
      <path d="M83.556 72.556h-.223v-2h.778c.445 0 .667.222.667.555 0 .333-.222.556-.445.556l.556.889h-.445l-.555-.89h-.445l.112.89zm.333-1.112c.333 0 .555 0 .555-.333s-.222-.333-.444-.333h-.444v.666h.333z" fill="#FFF" fill-rule="nonzero"/>
    </g>
  </symbol>

  <symbol id="icon-ifood" viewBox="0 0 100 100" xmlns="http://www.w3.org/2000/svg">
    <g fill-rule="nonzero" fill="none">
      <circle fill="#000" cx="50" cy="50" r="50"/>
      <g fill="#FFF">
        <path d="M80.982 36.374H76.31l-.111.662c-.334 1.654-.668 3.418-1.002 5.072l-.89-.11c-1.669-.221-3.004.22-4.339.992l-.668.44c-.333.332-.778.662-1.112.993-.223.11-.223.11-.334.22-.334.331-.89 1.103-1.113 1.544-.556.772-1.112 1.875-1.557 2.867-.334.992-.668 2.536-.334 3.859a3.003 3.003 0 0 0 2.114 2.315c1.113.331 2.893-.11 3.672-.44.778-.442 2.002-1.103 2.447-1.985h.223c0 .22-.556 2.094-.556 2.315h4.673l2.336-11.687c.112-.772.334-1.544.445-2.316l.78-4.74zM55.614 55.449c2.114 0 4.006-.662 5.452-1.985.111-.11.222-.22.334-.22a6.59 6.59 0 0 0 1.446-1.544c.445-.551.779-1.103 1.113-1.764.445-.992 1.001-2.426 1.001-3.528 0-.993-.111-1.875-.667-2.646a3.371 3.371 0 0 0-.89-.883c-.223-.11-.446-.33-.668-.44-.779-.331-2.003-.662-2.782-.662-1.557 0-2.225.11-3.449.551-.222.11-.89.331-1.113.551-1.891 1.103-3.115 2.536-4.228 4.631-.222.441-.333.772-.445 1.323-.11.441-.222.882-.222 1.544v.772c.111.772.111 1.323.667 2.095.668.992 2.003 1.764 3.227 1.984.223.11.779.22 1.224.22zM40.927 55.449c2.114 0 4.006-.662 5.452-1.985.556-.44 1.335-1.102 1.78-1.764.78-.992 1.447-2.095 1.78-3.308.446-1.543.557-3.197-.444-4.63-.334-.552-1.002-.993-1.67-1.324-.11-.11-.222-.11-.445-.11l-.445-.11c-1.335-.441-2.781-.441-4.228-.11-.778.11-1.557.44-2.225.771l-.556.331-.223.22c-.222.111-.333.221-.556.332-1.335.992-2.337 2.315-3.004 3.969-.223.44-.334.772-.445 1.323-.111.44-.223.882-.223 1.543v.772c.112.772.112 1.323.668 2.095.334.551.779.882 1.446 1.323.78.33 2.226.662 3.338.662zM29.578 42.108H27.91l-.333 1.984c0 .11-.112.552-.112.662h1.67l-.668 3.418c0 .33-.112.551-.223.882-.111.33-.111.551-.222.882l-.334 1.764c-.223.992-.557 2.536-.668 3.418l-.667 3.418h4.673c0-.22.111-.662.111-.882l2.67-13.12h3.338l.334-1.985c0-.22.111-.441.111-.662H34.14c0-.11.111-.33.111-.551.112-.551.223-.992.445-1.544.223-.551.89-.882 1.78-.882s1.67 0 2.448.331c.223.11.446.22.557.22l.556-2.756c-.111-.11-.445-.11-.667-.22 0 .11-.112 0-.446 0-.556-.11-1-.11-1.669-.22H36.7c-.89 0-1.891.22-2.67.55-.668.22-1.558.662-2.003 1.323-.445.441-.667.552-1.001 1.324-.78.771-1.113 1.543-1.447 2.646zM55.391 61.072l-.445.44-.222.221c-.668.441-1.001.772-1.78 1.323l-.89.552-.668.33c-1.78.662-2.782.993-4.673 1.434h-3.004c-1.335-.11-1.892-.22-3.227-.772-1.335-.441-2.67-1.433-3.672-2.315l-.445-.441c-.667-.662-1.446-1.765-1.891-2.647-.223-.33 0-.33-.445-.33 0 .11.111.33.111.55.223 1.324.779 2.427 1.447 3.419.222.33.333.551.556.772l.556.771c.223.331 1.002 1.103 1.447 1.544.778.662 1.001.882 2.002 1.544 1.78.992 3.895 1.654 6.009 1.654 2.559 0 3.56-.11 6.008-.772.222-.11.445-.11.667-.22.668-.221 1.447-.552 2.003-.773.111 0 .223-.11.334-.11.556-.33.89-.44 1.558-.882l.778-.551c.223-.11.557-.551.78-.551l.667 1.984c.111.33.222.662.334.882.111.11.111.331.111.441 0 .11.111.331.111.441h.223c0-.22 1.669-7.938 1.891-9.372 0-.11.112-.55.112-.55h-9.458c-.111 0 0 0 0 .11l2.56 1.984.222.22c.111-.44.222-.44.333-.33zM19.787 55.118h4.673l.334-1.654c.111-.551.222-.992.334-1.654l1.335-6.505c0-.22.111-.551.111-.772l.445-2.425h-4.673l-.445 2.425c-.334 1.544-2.114 10.364-2.114 10.585zM22.791 40.123h4.562c.111 0 .223-.661.223-.882l.556-2.867h-4.45c-.112 0-.112 0-.112.331l-.556 2.867c-.223.22-.223.44-.223.551z"/>
      </g>
    </g>
  </symbol>

  <symbol id="icon-food" viewBox="0 0 32 48" xmlns="http://www.w3.org/2000/svg" xmlns:xlink="http://www.w3.org/1999/xlink">
    <defs>
      <path d="M43.782 57.434a4.242 4.242 0 0 1-4.237-4.237V41.076c0-1.202.373-2.351 1.08-3.323l1.992-2.74-2.934-4.034a5.612 5.612 0 0 1-1.08-3.322V18.36c0-4.413 3.59-8.003 8.003-8.003a2.357 2.357 0 0 1 2.354 2.354v14.946a5.612 5.612 0 0 1-1.08 3.322l-2.934 4.034 1.992 2.74a5.612 5.612 0 0 1 1.08 3.323v12.12a4.242 4.242 0 0 1-4.236 4.238zm2.824-45.194a6.127 6.127 0 0 0-6.12 6.12v9.297c0 .801.25 1.567.72 2.215l2.576 3.54 2.575-3.54c.47-.648.72-1.414.72-2.215V12.71c0-.26-.211-.471-.47-.471zm-2.824 24.374l-1.634 2.246a3.743 3.743 0 0 0-.72 2.216v12.12a2.357 2.357 0 0 0 2.354 2.355 2.357 2.357 0 0 0 2.353-2.354V41.076c0-.802-.249-1.568-.72-2.216l-1.633-2.246zm-17.89 20.82a4.242 4.242 0 0 1-4.237-4.237V41.495A5.61 5.61 0 0 1 23.31 37.5l1.25-1.25-5.016-5.018a5.61 5.61 0 0 1-1.655-3.994V12.71a2.357 2.357 0 0 1 2.354-2.354 2.357 2.357 0 0 1 2.354 2.354v10.357a.472.472 0 0 0 .941 0V12.71a2.357 2.357 0 0 1 2.354-2.354 2.357 2.357 0 0 1 2.354 2.354v10.357a.472.472 0 0 0 .942 0V12.71a2.357 2.357 0 0 1 2.354-2.354 2.357 2.357 0 0 1 2.353 2.354v14.527a5.61 5.61 0 0 1-1.654 3.994l-5.017 5.017 1.25 1.251a5.61 5.61 0 0 1 1.655 3.995v11.702a4.242 4.242 0 0 1-4.237 4.237zM20.243 12.24c-.26 0-.47.211-.47.47v14.528c0 1.006.391 1.951 1.102 2.663l5.017 5.016 5.017-5.016a3.742 3.742 0 0 0 1.103-2.663V12.71a.472.472 0 0 0-.941 0v10.357a2.357 2.357 0 0 1-2.354 2.354 2.357 2.357 0 0 1-2.354-2.354V12.71a.472.472 0 0 0-.941 0v10.357a2.357 2.357 0 0 1-2.354 2.354 2.357 2.357 0 0 1-2.354-2.354V12.71c0-.26-.212-.471-.47-.471zm5.65 25.341l-1.252 1.25a3.742 3.742 0 0 0-1.103 2.664v11.702a2.357 2.357 0 0 0 2.354 2.354 2.357 2.357 0 0 0 2.354-2.354V41.495a3.742 3.742 0 0 0-1.103-2.664l-1.25-1.25z" id="a"/>
    </defs>
    <g transform="translate(-17 -10)" fill="none" fill-rule="evenodd">
      <mask id="b" fill="#fff">
        <use xlink:href="#a"/>
      </mask>
      <use fill="#000" xlink:href="#a"/>
      <g mask="url(#b)" fill="#000">
        <path d="M17.89 10.357h31.053v47.082H17.89z"/>
      </g>
    </g>
  </symbol>

  <symbol id="icon-entertainment" viewBox="0 0 35 51" xmlns="http://www.w3.org/2000/svg" xmlns:xlink="http://www.w3.org/1999/xlink">
    <defs>
      <path d="M27.914 26.761a4.48 4.48 0 0 1 5.982.912 4.48 4.48 0 0 1 5.98-.912V15.452a4.492 4.492 0 0 1 4.487-4.486 4.492 4.492 0 0 1 4.486 4.486v22.856a5.991 5.991 0 0 1 3.988 5.64v3.49c0 7.42-6.037 13.458-13.459 13.458H32.4c-7.421 0-13.458-6.038-13.458-13.459V17.53a4.492 4.492 0 0 1 4.486-4.486 4.492 4.492 0 0 1 4.486 4.486v9.232zM25.92 30.49V17.53a2.495 2.495 0 0 0-2.492-2.492 2.495 2.495 0 0 0-2.493 2.492v29.908c0 6.322 5.144 11.465 11.465 11.465h6.978c6.322 0 11.465-5.143 11.465-11.465v-3.49a3.99 3.99 0 0 0-1.994-3.451v2.455a5.988 5.988 0 0 1-5.981 5.981h-4.486a5.49 5.49 0 0 1-5.484-5.483c0-1.705.783-3.231 2.008-4.237a4.524 4.524 0 0 1-1.01-.921 4.48 4.48 0 0 1-3.49 1.67 4.492 4.492 0 0 1-4.486-4.487v-4.985zm15.193 7.477h5.742V15.452a2.495 2.495 0 0 0-2.492-2.492 2.495 2.495 0 0 0-2.492 2.492V35.474a4.46 4.46 0 0 1-.758 2.492zM25.92 30.49v3.49a.997.997 0 0 0 1.994 0v-1.745 3.24a2.495 2.495 0 0 0 2.492 2.492 2.495 2.495 0 0 0 2.492-2.492v-4.985a2.495 2.495 0 0 0-2.492-2.492 2.495 2.495 0 0 0-2.492 2.492v1.745zm13.957 0a2.495 2.495 0 0 0-2.492-2.492 2.495 2.495 0 0 0-2.493 2.492v4.985a2.495 2.495 0 0 0 2.493 2.492 2.495 2.495 0 0 0 2.492-2.492v-4.985zm-1.495 9.471a3.493 3.493 0 0 0-3.49 3.49 3.493 3.493 0 0 0 3.49 3.489h4.486a3.992 3.992 0 0 0 3.987-3.988v-2.99h-8.473z" id="a"/>
    </defs>
    <g transform="translate(-18 -10)" fill="none" fill-rule="evenodd">
      <mask id="b" fill="#fff">
        <use xlink:href="#a"/>
      </mask>
      <use fill="#000" xlink:href="#a"/>
      <g mask="url(#b)" fill="#000">
        <path d="M0 0h71.503v71.503H0z"/>
      </g>
    </g>
  </symbol>

  <symbol id="icon-college" viewBox="0 0 60 46" xmlns="http://www.w3.org/2000/svg" xmlns:xlink="http://www.w3.org/1999/xlink">
    <defs>
      <path d="M46.524 38.508c-.086.047-.17.097-.25.151.389-.839.6-1.767.6-2.733v-.113a6.67 6.67 0 0 0-1.96-4.747 6.635 6.635 0 0 0-4.728-1.96h-.006c-2.745.002-6.043.004-8.785.004a6.693 6.693 0 0 0-6.682 6.685v1.887l-2.917-1.496v-13.65l13.378-6.71a1.388 1.388 0 0 1 1.239-.001l26.896 13.49-16.785 9.193zm-19.589.314v-3.027c0-2.46 2.001-4.462 4.46-4.462 2.743 0 6.042-.002 8.787-.004h.004c1.192 0 2.313.464 3.155 1.308a4.463 4.463 0 0 1 1.31 3.176v.113a4.227 4.227 0 0 1-2.314 3.781l-.106.055c-4.044 2.08-8.914 2.162-12.994.24l-2.302-1.18zm17.717 2.846v2.511a3.877 3.877 0 0 1-3.874 3.874h-9.97a3.877 3.877 0 0 1-3.873-3.874v-2.86l1.32.677c4.734 2.23 10.338 2.135 14.987-.256l.103-.052a6.511 6.511 0 0 0 1.442-1 3.612 3.612 0 0 0-.135.98zm-23.07 14.024a.774.774 0 0 1-.642.336h-.51a.775.775 0 0 1-.643-.336.775.775 0 0 1-.088-.72l.986-2.613.986 2.613a.775.775 0 0 1-.09.72zm-2.008-20.647L8.342 29.283l11.232-5.633v11.395zM64.5 27.427L37.41 13.839a3.62 3.62 0 0 0-3.232 0L7.144 27.398a2.098 2.098 0 0 0-1.162 1.875 2.099 2.099 0 0 0 1.145 1.885l12.447 6.384v11.466l-1.954 5.18a3.002 3.002 0 0 0 2.81 4.063h.51a3.004 3.004 0 0 0 2.81-4.063l-1.954-5.18V38.683l2.917 1.496v4a6.103 6.103 0 0 0 6.096 6.096h9.97a6.103 6.103 0 0 0 6.095-6.096v-2.51c0-.506.275-.97.718-1.212l16.975-9.297c.69-.378 1.11-1.1 1.096-1.887a2.103 2.103 0 0 0-1.163-1.846z" id="a"/>
    </defs>
    <g transform="translate(-5.68 -13)" fill="none" fill-rule="evenodd">
      <mask id="b" fill="#fff">
        <use xlink:href="#a"/>
      </mask>
      <use fill="#000" xlink:href="#a"/>
      <g mask="url(#b)" fill="#000">
        <path d="M0 0h72.125v72.125H0z"/>
      </g>
    </g>
  </symbol>

  <symbol id="icon-close" viewBox="0 0 17 16" xmlns="http://www.w3.org/2000/svg">
    <g stroke="#000" stroke-width="1.5" fill="none" fill-rule="evenodd" stroke-linecap="square">
      <path d="M1.395 1l14.11 13.902M15.605 1L1.495 14.902"/>
    </g>
  </symbol>

  <symbol id="icon-cinemark" viewBox="0 0 130 130" xmlns="http://www.w3.org/2000/svg">
    <g fill="none" fill-rule="evenodd">
      <circle fill="#000" cx="65" cy="65" r="65"/>
      <g fill="#FFF">
        <path d="M78.867 65l.866-1.878L80.6 65h-1.733zm2.022-3.322h-2.167l-2.744 5.055H78l.289-.866h2.744l.434.866h2.022l-2.6-5.055z" fill-rule="nonzero"/>
        <path d="M39.433 64.278l1.445 1.155 1.733 1.3h1.733v-5.055h-2.166l.144 2.6-1.444-1.156-1.59-1.444h-1.877v5.055h2.167zM54.6 65.722h-2.456v-1.01h2.167V63.7h-2.167v-.867h2.312v-1.155h-4.478v5.055H54.6zM31.778 61.678h-2.022v5.055h2.022z"/>
        <path d="M91.722 63.7c-.144.144-.578.144-.722.144h-.722v-1.3H91c.289 0 .433 0 .578.145.144.144.289.289.289.578s-.145.433-.145.433zm1.59.867c-.29-.29-.579-.145-.434-.29h.144c.29-.144.434-.288.578-.433.144-.144.289-.433.289-.722s-.145-.578-.289-.866a.794.794 0 0 0-.722-.434c-.29-.144-.722-.144-1.445-.144h-3.322v5.055h2.167v-2.022h.578c.144 0 .288 0 .433.145.144 0 .289.288.433.433l.722 1.444h2.023c.144 0-1.011-1.877-1.156-2.166z" fill-rule="nonzero"/>
        <path d="M22.533 70.2c.145 0 .145 0 0 0h40.3v-4.478l3.034 3.034 3.033-3.034-.144 4.478h44.633l-9.822-6.356 2.6-2.166H104l-2.889 2.31v-2.31H99.09v5.055h2.022v-2.455l5.345 3.322h-35.1v-5.922h-2.312l-3.322 3.466-3.322-3.466h-2.311V67.6h-37.7c-1.156 0-1.878-.867-1.878-2.022 0-1.156.867-2.022 2.022-2.022.578 0 1.156.288 1.59.722l1.01-2.311c-.722-.578-1.589-.867-2.6-.867-2.455 0-4.477 2.022-4.477 4.478 0 2.6 2.022 4.622 4.477 4.622z"/>
      </g>
    </g>
  </symbol>
</svg>